<svg width="18" height="18" viewBox="0 0 18 18" fill="none" xmlns="http://www.w3.org/2000/svg">
<path d="M5.5 8.625C5.5 9.37926 5.61022 10.1969 6.16992 10.8154C6.73737 11.4422 7.65869 11.75 9 11.75C10.3445 11.75 11.2662 11.4429 11.833 10.8154C12.3921 10.1964 12.5 9.3781 12.5 8.625V4H5.5V8.625ZM2.5 8.75H5V2.5H2.5V8.75ZM13 8.75H15.5V2.5H13V8.75ZM8.75 12.2959L8.29785 12.252C7.22156 12.1477 6.50762 11.8073 6.03223 11.3633C5.55496 10.9173 5.27565 10.3271 5.14062 9.65234L5.05957 9.25H3C2.78762 9.25 2.53334 9.13881 2.32227 8.92773C2.11119 8.71666 2 8.46238 2 8.25V2H4.5C4.66785 2 4.92467 2.10498 5.15527 2.32812C5.38361 2.5491 5.5 2.8025 5.5 3V3.5H12.5V3C12.5 2.8025 12.6164 2.5491 12.8447 2.32812C13.0753 2.10498 13.3322 2 13.5 2H16V8.25C16 8.46238 15.8888 8.71666 15.6777 8.92773C15.4667 9.13881 15.2124 9.25 15 9.25H12.9404L12.8594 9.65234C12.7244 10.3271 12.445 10.9173 11.9678 11.3633C11.4924 11.8073 10.7784 12.1477 9.70215 12.252L9.25 12.2959V14.7393L9.67383 14.8047C10.6437 14.9534 11.0748 15.4064 11.2822 15.7783C11.3244 15.8539 11.3572 15.9289 11.3848 16H6.61523C6.6428 15.9289 6.67565 15.8539 6.71777 15.7783C6.92516 15.4064 7.35635 14.9534 8.32617 14.8047L8.75 14.7393V12.2959Z" fill="black" stroke="black"/>
</svg>
