<svg width="30" height="30" viewBox="0 0 30 30" fill="none" xmlns="http://www.w3.org/2000/svg">
<path d="M21.497 24.997C20.1401 26.3162 18.6586 26.1079 17.2325 25.483C15.7233 24.8442 14.3388 24.8164 12.7465 25.483C10.7527 26.344 9.70042 26.0941 8.50968 24.997C1.75294 18.0117 2.74983 7.3742 10.4204 6.98536C12.2896 7.08257 13.5911 8.013 14.6849 8.09633C16.3187 7.76303 17.8833 6.80482 19.6278 6.92981C21.7186 7.09645 23.297 7.92968 24.3354 9.42949C20.0155 12.0264 21.0401 17.734 25 19.331C24.2108 21.4141 23.1862 23.4833 21.4832 25.0109L21.497 24.997ZM14.5464 6.90203C14.3388 3.8052 16.8448 1.24997 19.7248 1C20.1263 4.58288 16.4848 7.24921 14.5464 6.90203Z" fill="black"/>
</svg>
