<svg width="87" height="87" viewBox="0 0 87 87" fill="none" xmlns="http://www.w3.org/2000/svg">
<path d="M32.0956 60.9976L43.5113 54.1119L54.927 61.0882L51.9372 48.0416L61.9939 39.3439L48.7662 38.1661L43.5113 25.8444L38.2564 38.0755L25.0287 39.2533L35.0854 48.0416L32.0956 60.9976ZM43.5113 62.6284L28.4715 71.6885C27.8071 72.1113 27.1125 72.2925 26.3877 72.2321C25.6629 72.1717 25.0287 71.9301 24.4851 71.5073C23.9415 71.0845 23.5187 70.5566 23.2167 69.9236C22.9147 69.2906 22.8543 68.5803 23.0355 67.7926L27.0219 50.669L13.7036 39.1627C13.0995 38.6191 12.7226 37.9994 12.5729 37.3036C12.4231 36.6078 12.4678 35.9289 12.7069 35.2669C12.9461 34.6049 13.3085 34.0613 13.7942 33.636C14.2798 33.2108 14.9442 32.939 15.7874 32.8206L33.364 31.2804L40.1591 15.1534C40.4611 14.4286 40.9298 13.885 41.5652 13.5226C42.2006 13.1602 42.8493 12.979 43.5113 12.979C44.1733 12.979 44.822 13.1602 45.4574 13.5226C46.0928 13.885 46.5615 14.4286 46.8635 15.1534L53.6586 31.2804L71.2352 32.8206C72.0808 32.9414 72.7452 33.2132 73.2284 33.636C73.7116 34.0588 74.074 34.6025 74.3157 35.2669C74.5573 35.9313 74.6032 36.6114 74.4534 37.3072C74.3036 38.003 73.9255 38.6215 73.319 39.1627L60.0007 50.669L63.9871 67.7926C64.1683 68.5778 64.1079 69.2882 63.8059 69.9236C63.5039 70.559 63.0811 71.0869 62.5375 71.5073C61.9939 71.9277 61.3597 72.1693 60.6349 72.2321C59.9101 72.2949 59.2155 72.1137 58.5511 71.6885L43.5113 62.6284Z" fill="black"/>
</svg>
