<svg width="46" height="46" viewBox="0 0 46 46" fill="none" xmlns="http://www.w3.org/2000/svg">
<path d="M5.75 23C5.75 25.2653 6.19618 27.5084 7.06308 29.6013C7.92997 31.6942 9.2006 33.5958 10.8024 35.1976C12.4042 36.7994 14.3058 38.07 16.3987 38.9369C18.4916 39.8038 20.7347 40.25 23 40.25C25.2653 40.25 27.5084 39.8038 29.6013 38.9369C31.6942 38.07 33.5958 36.7994 35.1976 35.1976C36.7994 33.5958 38.07 31.6942 38.9369 29.6013C39.8038 27.5084 40.25 25.2653 40.25 23C40.25 20.7347 39.8038 18.4916 38.9369 16.3987C38.07 14.3058 36.7994 12.4042 35.1976 10.8024C33.5958 9.2006 31.6942 7.92997 29.6013 7.06308C27.5084 6.19618 25.2653 5.75 23 5.75C20.7347 5.75 18.4916 6.19618 16.3987 7.06308C14.3058 7.92997 12.4042 9.2006 10.8024 10.8024C9.2006 12.4042 7.92997 14.3058 7.06308 16.3987C6.19618 18.4916 5.75 20.7347 5.75 23Z" stroke="#FFBA08" stroke-width="3" stroke-linecap="round" stroke-linejoin="round"/>
<path d="M28.3667 17.25C28.0195 16.6477 27.515 16.1511 26.9073 15.8135C26.2996 15.4759 25.6115 15.3099 24.9167 15.3333H21.0833C20.0667 15.3333 19.0916 15.7372 18.3728 16.4561C17.6539 17.1749 17.25 18.15 17.25 19.1666C17.25 20.1833 17.6539 21.1583 18.3728 21.8772C19.0916 22.5961 20.0667 23 21.0833 23H24.9167C25.9333 23 26.9084 23.4038 27.6272 24.1227C28.3461 24.8416 28.75 25.8166 28.75 26.8333C28.75 27.85 28.3461 28.825 27.6272 29.5439C26.9084 30.2628 25.9333 30.6666 24.9167 30.6666H21.0833C20.3885 30.69 19.7004 30.524 19.0927 30.1864C18.485 29.8488 17.9805 29.3522 17.6333 28.75M23 13.4166V32.5833" stroke="#FFBA08" stroke-width="3" stroke-linecap="round" stroke-linejoin="round"/>
</svg>
