<svg width="28" height="28" viewBox="0 0 28 28" fill="none" xmlns="http://www.w3.org/2000/svg">
<path fill-rule="evenodd" clip-rule="evenodd" d="M25.3574 1.60833C24.537 0.788148 23.4244 0.327393 22.2643 0.327393C21.1042 0.327393 19.9916 0.788148 19.1712 1.60833L18.1401 2.64083L25.3589 9.85958L26.3885 8.82854C26.7948 8.42228 27.1171 7.93995 27.3371 7.4091C27.557 6.87825 27.6702 6.30928 27.6702 5.73469C27.6702 5.16009 27.557 4.59112 27.3371 4.06028C27.1171 3.52943 26.7948 3.0471 26.3885 2.64083L25.3574 1.60833ZM23.2954 11.9217L16.0766 4.70292L2.82036 17.9606C2.53027 18.2508 2.32762 18.6166 2.23557 19.0165L0.734941 25.5133C0.679027 25.7545 0.68544 26.006 0.753577 26.244C0.821714 26.482 0.94933 26.6988 1.1244 26.8739C1.29947 27.0489 1.51623 27.1766 1.75426 27.2447C1.99229 27.3128 2.24375 27.3192 2.48494 27.2633L8.98327 25.7642C9.38257 25.6719 9.74791 25.4692 10.0376 25.1794L23.2954 11.9217Z" fill="black"/>
</svg>
