<svg width="87" height="87" viewBox="0 0 87 87" fill="none" xmlns="http://www.w3.org/2000/svg">
<path d="M43.4888 16.4561C43.4959 16.4561 43.507 16.4565 43.5298 16.4629C43.5461 16.4675 43.5751 16.4786 43.6187 16.499L50.4106 32.6162L51.229 34.5596L53.3306 34.7441L70.7642 36.2715C70.8424 36.2841 70.9013 36.2954 70.9429 36.3066C70.9582 36.3339 70.9802 36.3767 71.0034 36.4404C71.0102 36.4591 71.0129 36.4715 71.0142 36.4775V36.4785C71.0016 36.4915 70.9856 36.5093 70.9644 36.5283L57.6899 47.998L56.0894 49.3799L56.5688 51.4395L60.5464 68.5283C60.4988 68.5995 60.4481 68.6535 60.3892 68.7012L60.3745 68.6924L60.3345 68.668L45.2944 59.6074L43.4888 58.5195L41.6821 59.6074L26.6421 68.668L26.606 68.6895L26.5864 68.7012C26.5266 68.6515 26.4759 68.5959 26.4292 68.5264L30.4077 51.4395L30.8872 49.3799L29.2866 47.998L16.0181 36.5342C15.9938 36.5121 15.9763 36.4934 15.9634 36.4795C15.9635 36.4774 15.9642 36.4743 15.9653 36.4688C15.9665 36.463 15.9696 36.4515 15.9761 36.4336C15.9971 36.3754 16.0167 36.3348 16.0327 36.3066C16.073 36.2958 16.1301 36.2836 16.2065 36.2715L33.647 34.7441L35.7476 34.5596L36.5669 32.6162L43.3569 16.499C43.4008 16.4784 43.4303 16.4675 43.4468 16.4629C43.47 16.4564 43.4816 16.4561 43.4888 16.4561Z" fill="#FFBA08" stroke="black" stroke-width="7"/>
</svg>
