<svg width="18" height="18" viewBox="0 0 18 18" fill="none" xmlns="http://www.w3.org/2000/svg">
<path d="M8.9625 13.5C9.225 13.5 9.447 13.4092 9.6285 13.2277C9.81 13.0462 9.9005 12.8245 9.9 12.5625C9.8995 12.3005 9.809 12.0785 9.6285 11.8965C9.448 11.7145 9.226 11.624 8.9625 11.625C8.699 11.626 8.47725 11.7167 8.29725 11.8972C8.11725 12.0777 8.0265 12.2995 8.025 12.5625C8.0235 12.8255 8.11425 13.0475 8.29725 13.2285C8.48025 13.4095 8.702 13.5 8.9625 13.5ZM9 16.5C7.9625 16.5 6.9875 16.303 6.075 15.909C5.1625 15.515 4.36875 14.9808 3.69375 14.3063C3.01875 13.6318 2.4845 12.838 2.091 11.925C1.6975 11.012 1.5005 10.037 1.5 9C1.4995 7.963 1.6965 6.988 2.091 6.075C2.4855 5.162 3.01975 4.36825 3.69375 3.69375C4.36775 3.01925 5.1615 2.485 6.075 2.091C6.9885 1.697 7.9635 1.5 9 1.5C10.0365 1.5 11.0115 1.697 11.925 2.091C12.8385 2.485 13.6323 3.01925 14.3063 3.69375C14.9803 4.36825 15.5148 5.162 15.9098 6.075C16.3048 6.988 16.5015 7.963 16.5 9C16.4985 10.037 16.3015 11.012 15.909 11.925C15.5165 12.838 14.9823 13.6318 14.3063 14.3063C13.6303 14.9808 12.8365 15.5152 11.925 15.9097C11.0135 16.3042 10.0385 16.501 9 16.5ZM9 15C10.675 15 12.0938 14.4187 13.2563 13.2562C14.4188 12.0937 15 10.675 15 9C15 7.325 14.4188 5.90625 13.2563 4.74375C12.0938 3.58125 10.675 3 9 3C7.325 3 5.90625 3.58125 4.74375 4.74375C3.58125 5.90625 3 7.325 3 9C3 10.675 3.58125 12.0937 4.74375 13.2562C5.90625 14.4187 7.325 15 9 15ZM9.075 5.775C9.3875 5.775 9.6595 5.875 9.891 6.075C10.1225 6.275 10.238 6.525 10.2375 6.825C10.2375 7.1 10.1533 7.34375 9.98475 7.55625C9.81625 7.76875 9.6255 7.96875 9.4125 8.15625C9.125 8.40625 8.872 8.68125 8.6535 8.98125C8.435 9.28125 8.3255 9.61875 8.325 9.99375C8.325 10.1687 8.39075 10.3158 8.52225 10.4348C8.65375 10.5538 8.80675 10.613 8.98125 10.6125C9.16875 10.6125 9.32825 10.55 9.45975 10.425C9.59125 10.3 9.6755 10.1437 9.7125 9.95625C9.7625 9.69375 9.875 9.4595 10.05 9.2535C10.225 9.0475 10.4125 8.8505 10.6125 8.6625C10.9 8.3875 11.147 8.0875 11.3535 7.7625C11.56 7.4375 11.663 7.075 11.6625 6.675C11.6625 6.0375 11.4033 5.51575 10.8848 5.10975C10.3663 4.70375 9.763 4.5005 9.075 4.5C8.6 4.5 8.147 4.6 7.716 4.8C7.285 5 6.95675 5.30625 6.73125 5.71875C6.64375 5.86875 6.61575 6.02825 6.64725 6.19725C6.67875 6.36625 6.763 6.49425 6.9 6.58125C7.075 6.68125 7.25625 6.7125 7.44375 6.675C7.63125 6.6375 7.7875 6.53125 7.9125 6.35625C8.05 6.16875 8.222 6.025 8.4285 5.925C8.635 5.825 8.8505 5.775 9.075 5.775Z" fill="black"/>
</svg>
