<svg width="58" height="58" viewBox="0 0 58 58" fill="none" xmlns="http://www.w3.org/2000/svg">
<path d="M41.0835 24.1667C41.0835 28.1228 39.1864 31.6342 36.2405 33.8406L39.1405 37.7073C41.2456 36.1331 42.9544 34.0894 44.1308 31.7387C45.3071 29.388 45.9187 26.7953 45.9168 24.1667H41.0835ZM29.0002 12.0833C32.2049 12.0833 35.2783 13.3564 37.5444 15.6225C39.8104 17.8885 41.0835 20.962 41.0835 24.1667H45.9168C45.9168 19.6801 44.1345 15.3773 40.9621 12.2048C37.7896 9.03229 33.4867 7.25 29.0002 7.25V12.0833ZM16.9168 24.1667C16.9168 20.962 18.1899 17.8885 20.456 15.6225C22.722 13.3564 25.7955 12.0833 29.0002 12.0833V7.25C24.5136 7.25 20.2108 9.03229 17.0383 12.2048C13.8658 15.3773 12.0835 19.6801 12.0835 24.1667H16.9168ZM21.7598 33.8406C20.255 32.7166 19.0335 31.2567 18.1926 29.5772C17.3518 27.8976 16.9149 26.0449 16.9168 24.1667H12.0835C12.0816 26.7953 12.6932 29.388 13.8696 31.7387C15.046 34.0894 16.7547 36.1331 18.8598 37.7073L21.7598 33.8406ZM26.5763 47.7122C26.4996 44.0273 25.7383 40.3888 24.3312 36.9823L19.8652 38.831C21.0397 41.6754 21.6801 44.7204 21.7453 47.8138L26.5763 47.7122ZM32.2433 46.4266C31.2364 46.9302 30.126 47.1924 29.0002 47.1924C27.8743 47.1924 26.7639 46.9302 25.757 46.4266L23.5965 50.75C25.2743 51.5889 27.1244 52.0256 29.0002 52.0256C30.876 52.0256 32.726 51.5889 34.4038 50.75L32.2433 46.4266ZM33.6692 36.9847C32.2615 40.3903 31.4994 44.028 31.4217 47.7122L36.255 47.8138C36.3203 44.7204 36.9607 41.6754 38.1352 38.831L33.6692 36.9847ZM34.4038 50.75C34.9505 50.4755 35.4118 50.057 35.7381 49.5395C36.0643 49.0221 36.243 48.4253 36.255 47.8138L31.4217 47.7122C31.4283 47.4434 31.5084 47.1815 31.6532 46.9548C31.7981 46.7282 32.0021 46.5455 32.2433 46.4266L34.4038 50.75ZM21.7453 47.8138C21.7695 49.0317 22.4558 50.1797 23.5965 50.75L25.757 46.4266C25.9982 46.5455 26.2023 46.7282 26.3471 46.9548C26.4919 47.1815 26.572 47.4434 26.5787 47.7122L21.7453 47.8138ZM18.8598 37.7073C19.2223 37.9827 19.4374 38.1423 19.5872 38.2631C19.7395 38.3888 19.7105 38.3839 19.6428 38.2969L23.4612 35.3341C23.0093 34.7493 22.3084 34.2514 21.7598 33.8406L18.8598 37.7073ZM24.3312 36.9823C24.1427 36.5255 23.9034 35.902 23.4612 35.3341L19.6428 38.2969C19.6114 38.2534 19.6042 38.2317 19.6356 38.2969L19.7202 38.4854L19.8652 38.831L24.3312 36.9823ZM36.2405 33.8406C35.6919 34.2514 34.9887 34.7517 34.5368 35.3341L38.3575 38.2969C38.2923 38.3815 38.2608 38.3888 38.4131 38.2655C38.5629 38.1423 38.7756 37.9828 39.1405 37.7097L36.2405 33.8406ZM38.1352 38.831L38.2802 38.4854L38.3648 38.2969C38.3962 38.2317 38.3889 38.2534 38.3575 38.2969L34.5368 35.3341C34.0945 35.9044 33.8577 36.5255 33.6692 36.9847L38.1352 38.831Z" fill="black"/>
<path d="M36.2309 38.6667C34.0912 40.0984 31.5747 40.8628 29.0002 40.8628C26.4257 40.8628 23.9092 40.0984 21.7695 38.6667" stroke="black" stroke-width="2"/>
</svg>
