<svg width="21" height="21" viewBox="0 0 21 21" fill="none" xmlns="http://www.w3.org/2000/svg">
<mask id="path-1-inside-1_193_24" fill="white">
<path d="M9.5 18C8.59722 18 7.75174 17.8305 6.96356 17.4914C6.17537 17.1524 5.48926 16.694 4.90522 16.1164C4.32119 15.5388 3.85776 14.8602 3.51494 14.0807C3.17213 13.3012 3.00048 12.4648 3 11.5714H4.44444C4.44444 12.9643 4.93507 14.1459 5.91633 15.1164C6.89759 16.0869 8.09215 16.5719 9.5 16.5714C10.9079 16.5709 12.1026 16.0859 13.0844 15.1164C14.0661 14.1469 14.5565 12.9652 14.5556 11.5714C14.5546 10.1776 14.0642 8.99619 13.0844 8.02714C12.1046 7.05809 10.9098 6.57286 9.5 6.57143H9.39167L10.5111 7.67857L9.5 8.71428L6.61111 5.85714L9.5 3L10.5111 4.03571L9.39167 5.14286H9.5C10.4028 5.14286 11.2485 5.31262 12.0372 5.65214C12.8258 5.99167 13.5119 6.45 14.0955 7.02714C14.6791 7.60428 15.1425 8.28286 15.4858 9.06286C15.8291 9.84286 16.0005 10.679 16 11.5714C15.9995 12.4638 15.8281 13.3002 15.4858 14.0807C15.1434 14.8612 14.68 15.5398 14.0955 16.1164C13.511 16.6931 12.8249 17.1514 12.0372 17.4914C11.2495 17.8314 10.4037 18.0009 9.5 18Z"/>
</mask>
<path d="M9.5 18C8.59722 18 7.75174 17.8305 6.96356 17.4914C6.17537 17.1524 5.48926 16.694 4.90522 16.1164C4.32119 15.5388 3.85776 14.8602 3.51494 14.0807C3.17213 13.3012 3.00048 12.4648 3 11.5714H4.44444C4.44444 12.9643 4.93507 14.1459 5.91633 15.1164C6.89759 16.0869 8.09215 16.5719 9.5 16.5714C10.9079 16.5709 12.1026 16.0859 13.0844 15.1164C14.0661 14.1469 14.5565 12.9652 14.5556 11.5714C14.5546 10.1776 14.0642 8.99619 13.0844 8.02714C12.1046 7.05809 10.9098 6.57286 9.5 6.57143H9.39167L10.5111 7.67857L9.5 8.71428L6.61111 5.85714L9.5 3L10.5111 4.03571L9.39167 5.14286H9.5C10.4028 5.14286 11.2485 5.31262 12.0372 5.65214C12.8258 5.99167 13.5119 6.45 14.0955 7.02714C14.6791 7.60428 15.1425 8.28286 15.4858 9.06286C15.8291 9.84286 16.0005 10.679 16 11.5714C15.9995 12.4638 15.8281 13.3002 15.4858 14.0807C15.1434 14.8612 14.68 15.5398 14.0955 16.1164C13.511 16.6931 12.8249 17.1514 12.0372 17.4914C11.2495 17.8314 10.4037 18.0009 9.5 18Z" fill="black"/>
<path d="M9.5 18L9.50632 12H9.5V18ZM3 11.5714V5.57143H-3.00323L-3 11.5747L3 11.5714ZM4.44444 11.5714H10.4444V5.57143H4.44444V11.5714ZM9.5 6.57143L9.50608 0.571428H9.5V6.57143ZM9.39167 6.57143V0.571428H-5.20755L5.17253 10.8374L9.39167 6.57143ZM10.5111 7.67857L14.8044 11.8699L18.9686 7.60438L14.7302 3.41256L10.5111 7.67857ZM9.5 8.71428L5.28086 12.9803L9.57468 17.2269L13.7933 12.9056L9.5 8.71428ZM6.61111 5.85714L2.39197 1.59113L-1.92144 5.85714L2.39197 10.1232L6.61111 5.85714ZM9.5 3L13.7933 -1.19134L9.57468 -5.51264L5.28086 -1.26602L9.5 3ZM10.5111 4.03571L14.7302 8.30173L18.9686 4.10991L14.8044 -0.155626L10.5111 4.03571ZM9.39167 5.14286L5.17253 0.876842L-5.20755 11.1429H9.39167V5.14286ZM9.5 18V12C9.36918 12 9.33495 11.9799 9.33448 11.9797L6.96356 17.4914L4.59263 23.0031C6.16853 23.681 7.82526 24 9.5 24V18ZM6.96356 17.4914L9.33448 11.9797C9.20362 11.9234 9.15195 11.8777 9.12436 11.8504L4.90522 16.1164L0.686086 20.3824C1.82657 21.5104 3.14712 22.3813 4.59263 23.0031L6.96356 17.4914ZM4.90522 16.1164L9.12436 11.8504C9.09715 11.8235 9.05735 11.7791 9.00729 11.6653L3.51494 14.0807L-1.9774 16.4961C-1.34183 17.9413 -0.454778 19.2541 0.686086 20.3824L4.90522 16.1164ZM3.51494 14.0807L9.00729 11.6653C9.00712 11.6649 9.00739 11.6664 9.00661 11.6626C9.00567 11.658 9.00003 11.6294 9 11.5682L3 11.5714L-3 11.5747C-2.99909 13.257 -2.67089 14.9192 -1.9774 16.4961L3.51494 14.0807ZM3 11.5714V17.5714H4.44444V11.5714V5.57143H3V11.5714ZM4.44444 11.5714H-1.55556C-1.55556 14.5504 -0.435453 17.2732 1.6972 19.3824L5.91633 15.1164L10.1355 10.8504C10.1667 10.8813 10.2699 10.9996 10.3538 11.2015C10.4371 11.4024 10.4444 11.5487 10.4444 11.5714H4.44444ZM5.91633 15.1164L1.6972 19.3824C3.82725 21.4891 6.54923 22.5724 9.50203 22.5714L9.5 16.5714L9.49797 10.5714C9.49689 10.5714 9.62156 10.5742 9.80531 10.6488C9.99138 10.7243 10.1038 10.8191 10.1355 10.8504L5.91633 15.1164ZM9.5 16.5714L9.50203 22.5714C12.4516 22.5704 15.1709 21.4886 17.3004 19.3855L13.0844 15.1164L8.86839 10.8473C8.89955 10.8165 9.01092 10.7227 9.19526 10.6479C9.37726 10.574 9.50027 10.5714 9.49797 10.5714L9.5 16.5714ZM13.0844 15.1164L17.3004 19.3855C19.4377 17.2749 20.5576 14.5485 20.5556 11.5673L14.5556 11.5714L8.55556 11.5756C8.55554 11.553 8.56273 11.4057 8.64675 11.2032C8.73128 10.9995 8.83568 10.8796 8.86839 10.8473L13.0844 15.1164ZM14.5556 11.5714L20.5556 11.5673C20.5535 8.5927 19.4365 5.87062 17.3035 3.76113L13.0844 8.02714L8.86525 12.2932C8.83237 12.2606 8.72906 12.1416 8.64546 11.9402C8.56244 11.7402 8.55557 11.5956 8.55556 11.5756L14.5556 11.5714ZM13.0844 8.02714L17.3035 3.76113C15.1734 1.65443 12.453 0.574417 9.50608 0.571431L9.5 6.57143L9.49392 12.5714C9.49917 12.5714 9.37758 12.5693 9.19576 12.4955C9.01129 12.4205 8.89852 12.3261 8.86525 12.2932L13.0844 8.02714ZM9.5 6.57143V0.571428H9.39167V6.57143V12.5714H9.5V6.57143ZM9.39167 6.57143L5.17253 10.8374L6.29197 11.9446L10.5111 7.67857L14.7302 3.41256L13.6108 2.30541L9.39167 6.57143ZM10.5111 7.67857L6.21778 3.48723L5.20667 4.52294L9.5 8.71428L13.7933 12.9056L14.8044 11.8699L10.5111 7.67857ZM9.5 8.71428L13.7191 4.44827L10.8302 1.59113L6.61111 5.85714L2.39197 10.1232L5.28086 12.9803L9.5 8.71428ZM6.61111 5.85714L10.8302 10.1232L13.7191 7.26602L9.5 3L5.28086 -1.26602L2.39197 1.59113L6.61111 5.85714ZM9.5 3L5.20667 7.19134L6.21778 8.22705L10.5111 4.03571L14.8044 -0.155626L13.7933 -1.19134L9.5 3ZM10.5111 4.03571L6.29197 -0.230301L5.17253 0.876842L9.39167 5.14286L13.6108 9.40887L14.7302 8.30173L10.5111 4.03571ZM9.39167 5.14286V11.1429H9.5V5.14286V-0.857143H9.39167V5.14286ZM9.5 5.14286V11.1429C9.62963 11.1429 9.66361 11.1627 9.66466 11.1631L12.0372 5.65214L14.4097 0.141134C12.8334 -0.537464 11.1759 -0.857143 9.5 -0.857143V5.14286ZM12.0372 5.65214L9.66466 11.1631C9.79771 11.2204 9.84965 11.2667 9.87636 11.2932L14.0955 7.02714L18.3146 2.76113C17.1742 1.63326 15.854 0.762903 14.4097 0.141134L12.0372 5.65214ZM14.0955 7.02714L9.87636 11.2932C9.90268 11.3192 9.94307 11.3638 9.99414 11.4799L15.4858 9.06286L20.9774 6.64586C20.3419 5.20189 19.4554 3.88938 18.3146 2.76113L14.0955 7.02714ZM15.4858 9.06286L9.99414 11.4799C9.99472 11.4812 9.99444 11.4807 9.99394 11.4791C9.99344 11.4775 9.99353 11.4774 9.99402 11.4799C9.99463 11.4828 10 11.5094 10 11.5682L16 11.5714L22 11.5747C22.0009 9.8891 21.6722 8.22442 20.9774 6.64586L15.4858 9.06286ZM16 11.5714L10 11.5682C9.99997 11.629 9.99436 11.658 9.99323 11.6635C9.99226 11.6682 9.99211 11.6683 9.9911 11.6706L15.4858 14.0807L20.9805 16.4908C21.6712 14.9159 21.9991 13.2558 22 11.5747L16 11.5714ZM15.4858 14.0807L9.9911 11.6706C9.94221 11.7821 9.90471 11.8224 9.88164 11.8452L14.0955 16.1164L18.3094 20.3877C19.4553 19.2571 20.3447 17.9403 20.9805 16.4908L15.4858 14.0807ZM14.0955 16.1164L9.88164 11.8452C9.8507 11.8757 9.79473 11.9243 9.6594 11.9827L12.0372 17.4914L14.4149 23.0002C15.855 22.3786 17.1713 21.5105 18.3094 20.3877L14.0955 16.1164ZM12.0372 17.4914L9.6594 11.9827C9.65295 11.9855 9.64645 11.9879 9.63286 11.9906C9.61846 11.9935 9.57903 12.0001 9.50632 12L9.5 18L9.49368 24C11.1728 24.0018 12.8346 23.6823 14.4149 23.0002L12.0372 17.4914Z" fill="black" mask="url(#path-1-inside-1_193_24)"/>
</svg>
