<svg width="18" height="18" viewBox="0 0 18 18" fill="none" xmlns="http://www.w3.org/2000/svg">
<path d="M8.11873 16.5C7.78123 16.5 7.49074 16.3875 7.24724 16.1625C7.00374 15.9375 6.85674 15.6625 6.80624 15.3375L6.63749 14.1C6.47499 14.0375 6.32199 13.9625 6.17849 13.875C6.03499 13.7875 5.89424 13.6938 5.75624 13.5938L4.59374 14.0812C4.28124 14.2187 3.96874 14.2313 3.65624 14.1188C3.34374 14.0063 3.09999 13.8062 2.92499 13.5187L2.04374 11.9813C1.86874 11.6938 1.81874 11.3875 1.89374 11.0625C1.96874 10.7375 2.13749 10.4688 2.39999 10.2563L3.39374 9.50625C3.38124 9.41875 3.37499 9.33425 3.37499 9.25275V8.7465C3.37499 8.6655 3.38124 8.58125 3.39374 8.49375L2.39999 7.74375C2.13749 7.53125 1.96874 7.2625 1.89374 6.9375C1.81874 6.6125 1.86874 6.30625 2.04374 6.01875L2.92499 4.48125C3.09999 4.19375 3.34374 3.99375 3.65624 3.88125C3.96874 3.76875 4.28124 3.78125 4.59374 3.91875L5.75624 4.40625C5.89374 4.30625 6.03749 4.2125 6.18749 4.125C6.33749 4.0375 6.48749 3.9625 6.63749 3.9L6.80624 2.6625C6.85624 2.3375 7.00324 2.0625 7.24724 1.8375C7.49124 1.6125 7.78173 1.5 8.11873 1.5H9.88124C10.2187 1.5 10.5095 1.6125 10.7535 1.8375C10.9975 2.0625 11.1442 2.3375 11.1937 2.6625L11.3625 3.9C11.525 3.9625 11.6782 4.0375 11.8222 4.125C11.9662 4.2125 12.1067 4.30625 12.2437 4.40625L13.4062 3.91875C13.7187 3.78125 14.0312 3.76875 14.3437 3.88125C14.6562 3.99375 14.9 4.19375 15.075 4.48125L15.9562 6.01875C16.1312 6.30625 16.1812 6.6125 16.1062 6.9375C16.0312 7.2625 15.8625 7.53125 15.6 7.74375L14.6062 8.49375C14.6187 8.58125 14.625 8.66575 14.625 8.74725V9.25275C14.625 9.33425 14.6125 9.41875 14.5875 9.50625L15.5812 10.2563C15.8437 10.4688 16.0125 10.7375 16.0875 11.0625C16.1625 11.3875 16.1125 11.6938 15.9375 11.9813L15.0375 13.5187C14.8625 13.8062 14.6187 14.0063 14.3062 14.1188C13.9937 14.2313 13.6812 14.2187 13.3687 14.0812L12.2437 13.5938C12.1062 13.6938 11.9625 13.7875 11.8125 13.875C11.6625 13.9625 11.5125 14.0375 11.3625 14.1L11.1937 15.3375C11.1437 15.6625 10.997 15.9375 10.7535 16.1625C10.51 16.3875 10.2192 16.5 9.88124 16.5H8.11873ZM8.24998 15H9.73124L9.99373 13.0125C10.3812 12.9125 10.7407 12.7658 11.0722 12.5723C11.4037 12.3788 11.7067 12.1442 11.9812 11.8687L13.8375 12.6375L14.5687 11.3625L12.9562 10.1437C13.0187 9.96875 13.0625 9.7845 13.0875 9.591C13.1125 9.3975 13.125 9.2005 13.125 9C13.125 8.7995 13.1125 8.60275 13.0875 8.40975C13.0625 8.21675 13.0187 8.03225 12.9562 7.85625L14.5687 6.6375L13.8375 5.3625L11.9812 6.15C11.7062 5.8625 11.4032 5.622 11.0722 5.4285C10.7412 5.235 10.3817 5.088 9.99373 4.9875L9.74998 3H8.26873L8.00624 4.9875C7.61874 5.0875 7.25949 5.2345 6.92849 5.4285C6.59749 5.6225 6.29424 5.85675 6.01874 6.13125L4.16249 5.3625L3.43124 6.6375L5.04374 7.8375C4.98124 8.025 4.93749 8.2125 4.91249 8.4C4.88749 8.5875 4.87499 8.7875 4.87499 9C4.87499 9.2 4.88749 9.39375 4.91249 9.58125C4.93749 9.76875 4.98124 9.95625 5.04374 10.1437L3.43124 11.3625L4.16249 12.6375L6.01874 11.85C6.29374 12.1375 6.59699 12.3783 6.92849 12.5723C7.25999 12.7663 7.61924 12.913 8.00624 13.0125L8.24998 15ZM9.03749 11.625C9.76249 11.625 10.3812 11.3688 10.8937 10.8563C11.4062 10.3438 11.6625 9.725 11.6625 9C11.6625 8.275 11.4062 7.65625 10.8937 7.14375C10.3812 6.63125 9.76249 6.375 9.03749 6.375C8.29999 6.375 7.67824 6.63125 7.17224 7.14375C6.66624 7.65625 6.41299 8.275 6.41249 9C6.41199 9.725 6.66524 10.3438 7.17224 10.8563C7.67924 11.3688 8.30099 11.625 9.03749 11.625Z" fill="black"/>
</svg>
