<svg width="44" height="44" viewBox="0 0 44 44" fill="none" xmlns="http://www.w3.org/2000/svg">
<path d="M32.5625 5.64941C33.0514 5.5095 33.5633 5.46725 34.0684 5.52539C34.5735 5.5836 35.0631 5.74067 35.5078 5.98828C35.9523 6.23593 36.3438 6.56925 36.6602 6.96875C36.9766 7.36835 37.2118 7.82656 37.3516 8.31738C37.4913 8.80821 37.533 9.32199 37.4746 9.8291C37.4162 10.3362 37.2583 10.8265 37.0107 11.2725V11.2734L23.5752 35.502C23.2837 36.0274 22.8742 36.4776 22.3799 36.8174C21.8953 37.1504 21.3412 37.3673 20.7607 37.4541L20.1484 37.498C19.1455 37.4874 18.1746 37.087 17.4521 36.3613L17.4512 36.3604L6.70215 25.5918L6.69336 25.582L6.68359 25.5732L6.54883 25.4355C6.24155 25.1071 5.99331 24.7273 5.81543 24.3125C5.6122 23.8385 5.50452 23.3285 5.5 22.8125C5.49552 22.2964 5.59403 21.7842 5.78906 21.3066C5.98405 20.8292 6.27195 20.3958 6.63574 20.0312C6.99965 19.6667 7.43225 19.3777 7.9082 19.1826C8.38411 18.9876 8.8942 18.8901 9.4082 18.8945C9.92209 18.899 10.43 19.0058 10.9023 19.209C11.3748 19.4123 11.8026 19.7082 12.1602 20.0791L12.1787 20.0977L17.8887 25.8184L19.2959 27.2285L20.2627 25.4863L30.2402 7.49707C30.4875 7.05106 30.8202 6.65878 31.2188 6.3418C31.6172 6.02486 32.0736 5.78938 32.5625 5.64941Z" fill="#15FF38" stroke="black" stroke-width="3"/>
</svg>
