<svg width="53" height="53" viewBox="0 0 53 53" fill="none" xmlns="http://www.w3.org/2000/svg">
<path fill-rule="evenodd" clip-rule="evenodd" d="M3.09875 26.4999C3.09875 20.2935 5.56424 14.3413 9.95283 9.95271C14.3414 5.56412 20.2936 3.09863 26.5 3.09863C32.7064 3.09863 38.6586 5.56412 43.0472 9.95271C47.4358 14.3413 49.9013 20.2935 49.9013 26.4999C49.9013 32.7063 47.4358 38.6585 43.0472 43.0471C38.6586 47.4357 32.7064 49.9012 26.5 49.9012C20.2936 49.9012 14.3414 47.4357 9.95283 43.0471C5.56424 38.6585 3.09875 32.7063 3.09875 26.4999ZM26.5 6.4553C22.6148 6.45543 18.8134 7.58467 15.5582 9.70563C12.303 11.8266 9.73436 14.8478 8.16474 18.4019C6.59512 21.9559 6.09218 25.8895 6.71712 29.7241C7.34205 33.5587 9.06791 37.129 11.6848 40.0008C13.2732 37.5122 15.4634 35.4642 18.0529 34.0462C20.6425 32.6283 23.5477 31.8861 26.5 31.8882C29.4524 31.8861 32.3576 32.6283 34.9471 34.0462C37.5366 35.4642 39.7269 37.5122 41.3153 40.0008C43.9321 37.129 45.658 33.5587 46.2829 29.7241C46.9079 25.8895 46.4049 21.9559 44.8353 18.4019C43.2657 14.8478 40.697 11.8266 37.4418 9.70563C34.1866 7.58467 30.3852 6.45543 26.5 6.4553ZM38.8031 42.3257C37.5536 40.1701 35.759 38.381 33.5995 37.1382C31.44 35.8953 28.9916 35.2424 26.5 35.2449C24.0084 35.2424 21.56 35.8953 19.4005 37.1382C17.241 38.381 15.4465 40.1701 14.197 42.3257C17.7121 45.0659 22.043 46.551 26.5 46.5445C31.1358 46.5445 35.404 44.9686 38.8031 42.3257ZM18.1967 22.9842C18.1967 20.7821 19.0715 18.6701 20.6287 17.1129C22.1859 15.5557 24.2978 14.6809 26.5 14.6809C28.7022 14.6809 30.8142 15.5557 32.3714 17.1129C33.9285 18.6701 34.8034 20.7821 34.8034 22.9842C34.8034 25.1864 33.9285 27.2984 32.3714 28.8556C30.8142 30.4128 28.7022 31.2876 26.5 31.2876C24.2978 31.2876 22.1859 30.4128 20.6287 28.8556C19.0715 27.2984 18.1967 25.1864 18.1967 22.9842ZM26.5 18.0376C25.8504 18.0376 25.2072 18.1655 24.607 18.4141C24.0069 18.6627 23.4615 19.0271 23.0022 19.4864C22.5429 19.9458 22.1785 20.4911 21.9299 21.0912C21.6813 21.6914 21.5534 22.3346 21.5534 22.9842C21.5534 23.6338 21.6813 24.2771 21.9299 24.8772C22.1785 25.4774 22.5429 26.0227 23.0022 26.4821C23.4615 26.9414 24.0069 27.3058 24.607 27.5544C25.2072 27.803 25.8504 27.9309 26.5 27.9309C27.812 27.9309 29.0702 27.4097 29.9978 26.4821C30.9255 25.5544 31.4467 24.2962 31.4467 22.9842C31.4467 21.6723 30.9255 20.4141 29.9978 19.4864C29.0702 18.5587 27.812 18.0376 26.5 18.0376Z" fill="black"/>
</svg>
